<svg id="レイヤー_1" xmlns="http://www.w3.org/2000/svg" viewBox="0 0 688 328" enable-background="new 0 0 688 328"><style>.st2,.st3,.st4{fill-rule:evenodd;clip-rule:evenodd;fill:#6eb5e4}.st3,.st4{fill:#171c61}.st4{fill:#04348e}</style><filter filterUnits="objectBoundingBox" height="104.3%" id="filter-1" width="102.1%" x="-1%" y="-1.5%"><feOffset dy="2" in="SourceAlpha" result="shadowOffsetOuter1"/><feGaussianBlur in="shadowOffsetOuter1" result="shadowBlurOuter1" stdDeviation="2"/><feColorMatrix in="shadowBlurOuter1" result="shadowMatrixOuter1" values="0 0 0 0 1 0 0 0 0 1 0 0 0 0 1 0 0 0 0.5 0"/><feMerge><feMergeNode in="shadowMatrixOuter1"/><feMergeNode in="SourceGraphic"/></feMerge></filter><g id="Artboard"><g id="Group" transform="translate(0 2)" filter="url(#filter-1)"><path id="KSB_1_" d="M345.7 232v-9.3l11.7-1 2.9-3V116.8l-2.9-2.7-11.7-.9v-9.3H400v9.3l-11.3.9-3.1 2.7v50.1h5.4l41.4-50.3-1.1-2.5-10.7-.9v-9.3h43v9.3l-13.3 1.3-36.3 43.4 40.7 63.6 13.7 1.2v9.3h-39.5v-6.7l-32.1-49.4h-11.1v42.8l3.1 3 11.3 1v9.3h-54.4zm128-4.2v-34.6h14.5l3.1 22.9 2.5 2.9c2.8.9 5.6 1.5 8.3 2 2.8.4 5.6.7 8.4.7 7.5 0 13.4-1.6 17.9-4.9 4.5-3.3 6.7-7.7 6.7-13.1 0-4.8-1.6-9.2-4.7-12.9s-8.4-7.5-15.7-11.1c-1.2-.6-3-1.5-5.4-2.6-8.7-4-15.2-7.9-19.6-11.6-4.3-3.6-7.6-7.7-9.9-12.2-2.3-4.5-3.5-9.2-3.5-13.9 0-10.9 4.2-20 12.5-27 8.4-7.1 19.2-10.6 32.5-10.6 5.8 0 11.7.5 17.6 1.6 6 1.1 12.1 2.7 18.3 4.9v31h-13.8l-3.2-19.9-2.7-2.7c-1.8-.9-3.9-1.6-6.2-2.1s-4.9-.7-7.8-.7c-6.8 0-12.2 1.7-16.3 5-4.1 3.4-6.2 7.7-6.2 13.1 0 4 1.2 7.6 3.5 10.8 2.3 3.2 6.3 6.5 12 9.8 1.4.9 5.2 2.7 11.4 5.5s11.5 5.5 15.8 8.3c5.5 3.5 9.8 7.8 12.8 12.8s4.5 10.3 4.5 15.9c0 11.7-4.6 21.1-13.9 28.4s-21.5 10.8-36.7 10.8c-6.2 0-12.5-.5-18.7-1.6-6.1-1.3-12.2-2.8-18-4.9zm140.2-6.7l.7.1c3.9.2 6.7.3 8.6.3 11.2 0 19.3-2 24.4-6.1 5.1-4.1 7.6-10.6 7.6-19.6 0-8.1-2.4-14.2-7.2-18.2-4.8-4-12-6-21.5-6-2.8 0-5.1 0-7 .1-1.9.1-3.7.2-5.6.3v49.1zm.1-60.4c.5.1 1.1.1 1.9.1h3.3c9.9 0 17.3-2 22-6 4.7-4 7-10.3 7-18.8 0-7.5-2.2-13-6.5-16.6s-11-5.4-20.1-5.4c-1.5 0-3.9.1-7.1.4h-.6l.1 46.3zm-39.2-56.8h57.4c14.1 0 24.6 2.5 31.7 7.5 7.1 5 10.6 12.5 10.6 22.4 0 7.5-2.3 13.8-6.9 18.9-4.6 5.1-11.4 8.8-20.3 11.1 10.9.2 19.5 3 25.6 8.4 6.1 5.4 9.1 12.9 9.1 22.4 0 12.1-4.1 21.3-12.4 27.7-8.3 6.4-20.2 9.7-35.7 9.7h-59v-9.3l11.3-1 3.1-3V116.8l-3.1-2.7-11.3-.9v-9.3z" fill-rule="evenodd" clip-rule="evenodd" fill="#1b1464"/><g id="Group-2_1_"><path id="Rectangle_1_" class="st2" d="M170.3 6.4l26.2 26.2c3.5 3.5 3.5 9.2 0 12.7l-26.2 26.2c-3.5 3.5-9.2 3.5-12.7 0l-26.2-26.2c-3.5-3.5-3.5-9.2 0-12.7l26.2-26.2c3.4-3.6 9.1-3.6 12.7 0z"/><path id="Rectangle-Copy-2_1_" class="st3" d="M219.3 54.4l26.2 26.2c3.5 3.5 3.5 9.2 0 12.7l-26.2 26.2c-3.5 3.5-9.2 3.5-12.7 0l-26.2-26.2c-3.5-3.5-3.5-9.2 0-12.7l26.2-26.2c3.4-3.6 9.1-3.6 12.7 0z"/><path id="Rectangle-Copy-3_1_" class="st4" d="M219.3 54.4l26.2 26.2c3.5 3.5 3.5 9.2 0 12.7l-26.2 26.2c-3.5 3.5-9.2 3.5-12.7 0l-26.2-26.2c-3.5-3.5-3.5-9.2 0-12.7l26.2-26.2c3.4-3.6 9.1-3.6 12.7 0z"/><path id="Rectangle-Copy-4_1_" class="st4" d="M121.3 54.4l26.2 26.2c3.5 3.5 3.5 9.2 0 12.7l-26.2 26.2c-3.5 3.5-9.2 3.5-12.7 0L82.4 93.3c-3.5-3.5-3.5-9.2 0-12.7l26.2-26.2c3.4-3.6 9.1-3.6 12.7 0z"/><path id="Rectangle-Copy-7_1_" class="st3" d="M71.3 103.4l51.2 51.2c3.5 3.5 3.5 9.2 0 12.7l-51.2 51.2c-3.5 3.5-9.2 3.5-12.7 0L7.3 167.3c-3.5-3.5-3.5-9.2 0-12.7l51.2-51.2c3.5-3.6 9.2-3.6 12.8 0z"/><path id="Rectangle-Copy-8_1_" class="st3" d="M170.3 103.4l51.2 51.2c3.5 3.5 3.5 9.2 0 12.7l-51.2 51.2c-3.5 3.5-9.2 3.5-12.7 0l-51.2-51.2c-3.5-3.5-3.5-9.2 0-12.7l51.2-51.2c3.5-3.6 9.2-3.6 12.7 0z"/><path id="Rectangle-Copy-9_1_" class="st3" d="M268.3 103.4l51.2 51.2c3.5 3.5 3.5 9.2 0 12.7l-51.2 51.2c-3.5 3.5-9.2 3.5-12.7 0l-51.2-51.2c-3.5-3.5-3.5-9.2 0-12.7l51.2-51.2c3.5-3.6 9.2-3.6 12.7 0z"/><path id="Rectangle-Copy-5_1_" class="st4" d="M121.3 203.4l26.2 26.2c3.5 3.5 3.5 9.2 0 12.7l-26.2 26.2c-3.5 3.5-9.2 3.5-12.7 0l-26.2-26.2c-3.5-3.5-3.5-9.2 0-12.7l26.2-26.2c3.4-3.6 9.1-3.6 12.7 0z"/><path id="Rectangle-Copy-6_1_" class="st4" d="M218.3 203.4l26.2 26.2c3.5 3.5 3.5 9.2 0 12.7l-26.2 26.2c-3.5 3.5-9.2 3.5-12.7 0l-26.2-26.2c-3.5-3.5-3.5-9.2 0-12.7l26.2-26.2c3.4-3.6 9.1-3.6 12.7 0z"/><path id="Rectangle-Copy_1_" class="st2" d="M170.3 251.4l26.2 26.2c3.5 3.5 3.5 9.2 0 12.7l-26.2 26.2c-3.5 3.5-9.2 3.5-12.7 0l-26.2-26.2c-3.5-3.5-3.5-9.2 0-12.7l26.2-26.2c3.4-3.6 9.1-3.6 12.7 0z"/></g></g></g></svg>